<svg xmlns="http://www.w3.org/2000/svg" viewBox="0 0 100 100">
  <defs>
    <filter id="shadow" x="-20%" y="-20%" width="140%" height="140%">
      <feDropShadow dx="2" dy="2" stdDeviation="2" flood-opacity="0.3"/>
    </filter>
  </defs>
  <g filter="url(#shadow)">
    <circle cx="50" cy="50" r="48" fill="#fff" stroke="#333" stroke-width="2"/>
    <path d="M50 50 L50 2 A48 48 0 0 1 91.57 26 Z" fill="#FFD700"/>
    <path d="M50 50 L91.57 26 A48 48 0 0 1 91.57 74 Z" fill="#FF6B35"/>
    <path d="M50 50 L91.57 74 A48 48 0 0 1 50 98 Z" fill="#E91E63"/>
    <path d="M50 50 L50 98 A48 48 0 0 1 8.43 74 Z" fill="#9C27B0"/>
    <path d="M50 50 L8.43 74 A48 48 0 0 1 8.43 26 Z" fill="#2196F3"/>
    <path d="M50 50 L8.43 26 A48 48 0 0 1 50 2 Z" fill="#4CAF50"/>
    <circle cx="50" cy="50" r="12" fill="#fff" stroke="#333" stroke-width="2"/>
    <text x="50" y="54" font-family="Arial, sans-serif" font-size="10" font-weight="bold" text-anchor="middle" fill="#333">WOW</text>
  </g>
</svg>
